<?xml version="1.0" encoding="utf-8"?>
<!-- Generator: Adobe Illustrator 23.0.3, SVG Export Plug-In . SVG Version: 6.00 Build 0)  -->
<svg version="1.1" id="Layer_1" xmlns="http://www.w3.org/2000/svg" xmlns:xlink="http://www.w3.org/1999/xlink" x="0px" y="0px"
	 viewBox="0 0 1500 1500" style="enable-background:new 0 0 1500 1500;" xml:space="preserve">
<style type="text/css">
	.st0{fill:url(#SVGID_1_);}
	.st1{fill:url(#SVGID_2_);}
	.st2{fill:url(#SVGID_3_);}
	.st3{fill:url(#SVGID_4_);}
	.st4{fill:#FFFFFF;}
	.st5{font-family:'CenturyGothic';}
	.st6{font-size:141.8668px;}
	.st7{letter-spacing:-1;}
	.st8{fill:#FFFFFF;stroke:#FFFFFF;stroke-miterlimit:10;}
</style>
<rect width="1500" height="1500"/>
<g>
	<g>
		<linearGradient id="SVGID_1_" gradientUnits="userSpaceOnUse" x1="884.574" y1="756.0704" x2="884.574" y2="589.5539">
			<stop  offset="0" style="stop-color:#4D00FC"/>
			<stop  offset="0.0596" style="stop-color:#6B08ED"/>
			<stop  offset="0.1476" style="stop-color:#9011DB"/>
			<stop  offset="0.2429" style="stop-color:#B11ACB"/>
			<stop  offset="0.3455" style="stop-color:#CB20BE"/>
			<stop  offset="0.4578" style="stop-color:#DF26B3"/>
			<stop  offset="0.585" style="stop-color:#ED29AC"/>
			<stop  offset="0.7399" style="stop-color:#F52BA8"/>
			<stop  offset="1" style="stop-color:#F82CA7"/>
		</linearGradient>
		<path class="st0" d="M907.88,635.46l-29.46-19.72L870,595.71c-4.95-2.54-10.16-4.66-15.67-6.16l-1.57,166.52
			c36.66-9.98,63.63-43.07,63.63-82.47C916.39,660.05,913.32,647.08,907.88,635.46z"/>
		<linearGradient id="SVGID_2_" gradientUnits="userSpaceOnUse" x1="852.499" y1="576.1998" x2="1040.4999" y2="576.1998">
			<stop  offset="0" style="stop-color:#FCB20B"/>
			<stop  offset="1" style="stop-color:#FF1E40"/>
		</linearGradient>
		<path class="st1" d="M946.5,503.15c-51.92,0-94,32.71-94,73.05c0,40.35,42.09,73.05,94,73.05c51.92,0,94-32.71,94-73.05
			C1040.5,535.85,998.41,503.15,946.5,503.15z M942.44,638.78c-41.58,0-75.28-29.78-75.28-66.51c0-36.73,33.7-66.51,75.28-66.51
			c41.58,0,75.28,29.78,75.28,66.51C1017.72,609,984.02,638.78,942.44,638.78z"/>
		<g>
			<linearGradient id="SVGID_3_" gradientUnits="userSpaceOnUse" x1="765.7158" y1="610.6392" x2="765.7158" y2="517.642">
				<stop  offset="0" style="stop-color:#9400AE"/>
				<stop  offset="0.2613" style="stop-color:#B70FAC"/>
				<stop  offset="0.5762" style="stop-color:#DA1FA9"/>
				<stop  offset="0.8338" style="stop-color:#F028A8"/>
				<stop  offset="1" style="stop-color:#F82CA7"/>
			</linearGradient>
			<path class="st2" d="M687.32,608.04c3.04,3.46,7.98,3.46,11.02,0l41.11-46.79c16.17-18.42,38.25-27.7,61.37-25.58
				c16,1.46,31.3,8.66,43.55,20.46c0.72,0.7,1.35,1.48,2.05,2.2v-22.51c-15.27-11.75-33.22-18.18-52.06-18.18
				c-24.91,0-48.32,11.04-65.92,31.06l-41.13,46.79c-3.04,3.46-3.04,9.07,0,12.54L687.32,608.04z"/>
			<linearGradient id="SVGID_4_" gradientUnits="userSpaceOnUse" x1="652.9561" y1="729.7255" x2="652.9561" y2="517.642">
				<stop  offset="0" style="stop-color:#9400AE"/>
				<stop  offset="0.2613" style="stop-color:#B70FAC"/>
				<stop  offset="0.5762" style="stop-color:#DA1FA9"/>
				<stop  offset="0.8338" style="stop-color:#F028A8"/>
				<stop  offset="1" style="stop-color:#F82CA7"/>
			</linearGradient>
			<path class="st3" d="M846.41,689.09c-30.45,31.38-77.61,30.47-106.96-2.92l-46.66-53.07l-6.13-6.98l-2.11-2.4l-19.28-21.94
				l-46.64-53.08c-17.62-20.02-41.03-31.06-65.94-31.06c-24.9,0-48.32,11.04-65.92,31.06c-36.35,41.37-36.35,108.65,0,150
				c18.17,20.67,42.05,31.02,65.92,31.02c23.87,0,47.75-10.35,65.94-31.02l41.16-46.83c3.04-3.46,3.04-9.07,0-12.54
				c-3.04-3.46-7.98-3.46-11.02,0l-41.18,46.83c-30.27,34.43-79.52,34.43-109.81,0c-31.95-36.37-30.17-96.78,5.33-130.45
				c12.31-11.67,27.62-18.74,43.6-20.09c22.94-1.94,44.82,7.34,60.88,25.62l68.04,77.4l6.15,6.98l46.66,53.07
				c18.17,20.67,42.05,31.02,65.92,31.02c18.2,0,36.38-6.06,52.06-18.08V689.09z"/>
		</g>
	</g>
	<text transform="matrix(1 0 0 1 494.9599 893.1729)"><tspan x="0" y="0" class="st4 st5 st6">INFINI</tspan><tspan x="374.89" y="0" class="st4 st5 st6 st7">T</tspan><tspan x="434.02" y="0" class="st4 st5 st6">E</tspan></text>
	<g>
		<path class="st8" d="M621.38,976.95c0,0.48-0.17,0.89-0.51,1.23c-0.34,0.34-0.75,0.51-1.23,0.51c-0.48,0-0.89-0.17-1.23-0.51
			c-0.34-0.34-0.51-0.75-0.51-1.23V961.8c-0.23-0.39-0.36-0.75-0.38-1.07c0-0.32,0.12-0.68,0.38-1.07v-19.44
			c-0.88-0.34-1.39-0.8-1.56-1.39c-0.04-0.14-0.05-0.29-0.05-0.43c0-0.3,0.09-0.6,0.27-0.88c0.25-0.41,0.61-0.68,1.07-0.8
			s0.97-0.23,1.5-0.32c0.16-0.04,0.33-0.05,0.51-0.05c1.14-0.14,2.3-0.21,3.46-0.21c1.95,0,3.99,0.2,6.11,0.59
			c3.5,0.64,6.33,1.66,8.47,3.06c1.61,1.02,2.88,2.22,3.81,3.62c1.04,1.5,1.6,3.11,1.69,4.83v0.48c0,1.82-0.55,3.58-1.64,5.25
			c-1.06,1.64-2.53,3.07-4.42,4.29c-3.83,2.43-9.07,3.83-15.74,4.18V976.95z M621.38,958.9c2.38-0.2,4.46-0.49,6.25-0.88
			c2.18-0.45,4.09-1.03,5.74-1.74c4.22-1.86,6.33-4.38,6.33-7.56v-0.32c-0.05-1.18-0.48-2.3-1.29-3.35
			c-0.66-0.89-1.54-1.68-2.63-2.36c-1.57-1.04-3.7-1.82-6.38-2.36c-2.15-0.48-4.25-0.72-6.33-0.72c-0.36,0-0.92,0.02-1.69,0.05
			V958.9z"/>
		<path class="st8" d="M661.44,940.43v15.34h22.23c0.48,0,0.89,0.18,1.23,0.54c0.34,0.32,0.51,0.72,0.51,1.21s-0.17,0.89-0.51,1.23
			c-0.34,0.34-0.75,0.51-1.23,0.51h-22.23v10.73c0,1.7,0.04,2.7,0.13,3c0.2,0.5,0.53,0.86,0.99,1.07c0.41,0.21,0.98,0.32,1.72,0.32
			h20.54c0.46,0,0.87,0.18,1.21,0.54c0.36,0.34,0.54,0.74,0.54,1.21c0,0.48-0.18,0.89-0.54,1.23c-0.34,0.36-0.74,0.54-1.21,0.54
			h-20.54c-2.45,0-4.15-0.69-5.09-2.07c-0.82-1.2-1.23-3.15-1.23-5.84v-29.44c-0.7-0.23-1.16-0.49-1.39-0.78
			c-0.23-0.32-0.35-0.68-0.35-1.07c0-0.46,0.18-0.87,0.54-1.21c0.34-0.36,0.74-0.54,1.21-0.54h26.87c0.46,0,0.87,0.18,1.21,0.54
			c0.36,0.34,0.54,0.74,0.54,1.21c0,0.48-0.18,0.89-0.54,1.23c-0.32,0.34-0.72,0.51-1.21,0.51H661.44z"/>
		<path class="st8" d="M733.33,938.82c2.38,1.57,4.27,3.8,5.68,6.68c1.52,3.15,2.29,6.66,2.31,10.54v0.29
			c0,3.74-0.69,7.26-2.06,10.56c-1.5,3.58-3.58,6.39-6.25,8.45c-2.93,2.24-6.32,3.35-10.16,3.35c-4.84,0-8.79-1.36-11.82-4.08
			c-3.07-2.7-4.97-6.48-5.68-11.34c-0.2-1.25-0.29-2.5-0.29-3.75c0-1.91,0.21-3.85,0.64-5.82c0.7-3.22,1.92-6.12,3.67-8.71
			c1.79-2.7,3.97-4.8,6.54-6.3c2.7-1.57,5.66-2.36,8.88-2.36h0.21C728.11,936.36,730.89,937.19,733.33,938.82z M724.93,939.81h-0.11
			c-2.77,0-5.29,0.72-7.56,2.15c-2.13,1.3-3.91,3.15-5.36,5.52c-1.38,2.22-2.34,4.68-2.9,7.4c-0.3,1.57-0.46,3.11-0.46,4.61
			c0,1.11,0.08,2.2,0.24,3.27c0.61,4,2.09,7.07,4.45,9.2c2.43,2.16,5.63,3.24,9.6,3.24c3.27,0,6.12-1.01,8.55-3.03
			c2.16-1.8,3.82-4.25,4.96-7.32c0.98-2.68,1.47-5.48,1.47-8.39v-0.75c-0.09-3.25-0.75-6.15-1.98-8.69
			c-1.09-2.27-2.54-4.02-4.34-5.25C729.61,940.5,727.42,939.85,724.93,939.81z"/>
		<path class="st8" d="M767.15,976.95c0,0.48-0.17,0.89-0.51,1.23c-0.34,0.34-0.75,0.51-1.23,0.51c-0.48,0-0.89-0.17-1.23-0.51
			c-0.34-0.34-0.51-0.75-0.51-1.23V961.8c-0.23-0.39-0.36-0.75-0.38-1.07c0-0.32,0.13-0.68,0.38-1.07v-19.44
			c-0.88-0.34-1.39-0.8-1.56-1.39c-0.04-0.14-0.05-0.29-0.05-0.43c0-0.3,0.09-0.6,0.27-0.88c0.25-0.41,0.61-0.68,1.07-0.8
			s0.97-0.23,1.5-0.32c0.16-0.04,0.33-0.05,0.51-0.05c1.14-0.14,2.3-0.21,3.46-0.21c1.95,0,3.99,0.2,6.11,0.59
			c3.5,0.64,6.33,1.66,8.47,3.06c1.61,1.02,2.88,2.22,3.81,3.62c1.04,1.5,1.6,3.11,1.69,4.83v0.48c0,1.82-0.54,3.58-1.64,5.25
			c-1.05,1.64-2.53,3.07-4.42,4.29c-3.83,2.43-9.07,3.83-15.74,4.18V976.95z M767.15,958.9c2.38-0.2,4.46-0.49,6.25-0.88
			c2.18-0.45,4.09-1.03,5.74-1.74c4.22-1.86,6.33-4.38,6.33-7.56v-0.32c-0.05-1.18-0.48-2.3-1.29-3.35
			c-0.66-0.89-1.54-1.68-2.63-2.36c-1.57-1.04-3.7-1.82-6.38-2.36c-2.15-0.48-4.25-0.72-6.33-0.72c-0.36,0-0.92,0.02-1.69,0.05
			V958.9z"/>
		<path class="st8" d="M813.55,969.97c0,1.7,0.04,2.7,0.13,3c0.2,0.5,0.52,0.86,0.97,1.07c0.43,0.21,1,0.32,1.72,0.32h17.43
			c0.48,0,0.89,0.18,1.23,0.54c0.34,0.32,0.51,0.72,0.51,1.21c0,0.5-0.17,0.91-0.51,1.23c-0.34,0.36-0.75,0.54-1.23,0.54h-17.43
			c-2.45,0-4.14-0.69-5.07-2.07c-0.84-1.2-1.26-3.15-1.26-5.84v-32.12c0-0.46,0.18-0.87,0.54-1.21c0.34-0.36,0.75-0.54,1.23-0.54
			c0.46,0,0.87,0.18,1.21,0.54c0.36,0.34,0.54,0.74,0.54,1.21V969.97z"/>
		<path class="st8" d="M858.6,940.43v15.34h22.23c0.48,0,0.89,0.18,1.23,0.54c0.34,0.32,0.51,0.72,0.51,1.21s-0.17,0.89-0.51,1.23
			c-0.34,0.34-0.75,0.51-1.23,0.51H858.6v10.73c0,1.7,0.04,2.7,0.13,3c0.2,0.5,0.53,0.86,0.99,1.07c0.41,0.21,0.98,0.32,1.72,0.32
			h20.54c0.46,0,0.87,0.18,1.21,0.54c0.36,0.34,0.54,0.74,0.54,1.21c0,0.48-0.18,0.89-0.54,1.23c-0.34,0.36-0.74,0.54-1.21,0.54
			h-20.54c-2.45,0-4.15-0.69-5.09-2.07c-0.82-1.2-1.23-3.15-1.23-5.84v-29.44c-0.7-0.23-1.16-0.49-1.39-0.78
			c-0.23-0.32-0.35-0.68-0.35-1.07c0-0.46,0.18-0.87,0.54-1.21c0.34-0.36,0.74-0.54,1.21-0.54h26.87c0.46,0,0.87,0.18,1.21,0.54
			c0.36,0.34,0.54,0.74,0.54,1.21c0,0.48-0.18,0.89-0.54,1.23c-0.32,0.34-0.72,0.51-1.21,0.51H858.6z"/>
	</g>
</g>
</svg>
